Coordinates
version=1
nRows=4
nColumns=63
inDegrees=yes

Units are S.I. units (second, meters, Newtons, ...)
If the header above contains a line with 'inDegrees', this indicates whether rotational values are in degrees (yes) or radians (no).

endheader
time	pelvis_tilt	pelvis_list	pelvis_rotation	pelvis_tx	pelvis_ty	pelvis_tz	hip_flexion_r	hip_adduction_r	hip_rotation_r	knee_angle_r	knee_angle_r_beta	ankle_angle_r	subtalar_angle_r	mtp_angle_r	hip_flexion_l	hip_adduction_l	hip_rotation_l	knee_angle_l	knee_angle_l_beta	ankle_angle_l	subtalar_angle_l	mtp_angle_l	L5_S1_Flex_Ext	L5_S1_Lat_Bending	L5_S1_axial_rotation	L4_L5_Flex_Ext	L4_L5_Lat_Bending	L4_L5_axial_rotation	L3_L4_Flex_Ext	L3_L4_Lat_Bending	L3_L4_axial_rotation	L2_L3_Flex_Ext	L2_L3_Lat_Bending	L2_L3_axial_rotation	L1_L2_Flex_Ext	L1_L2_Lat_Bending	L1_L2_axial_rotation	L1_T12_Flex_Ext	L1_T12_Lat_Bending	L1_T12_axial_rotation	Abs_r3	Abs_r2	Abs_r1	Abs_t1	Abs_t2	neck_flexion	neck_bending	neck_rotation	arm_flex_r	arm_add_r	arm_rot_r	elbow_flex_r	pro_sup_r	wrist_flex_r	wrist_dev_r	arm_flex_l	arm_add_l	arm_rot_l	elbow_flex_l	pro_sup_l	wrist_flex_l	wrist_dev_l
      4.50000000	     -4.05907990	     -1.68629201	     90.42366492	      0.16413597	      0.97450107	      0.39999309	     -0.71061513	     -3.01926184	     -6.47345827	     13.85536823	      0.24182179	     32.54763834	      3.42365119	      0.00000000	     -2.38088705	      2.38793004	    -12.55866523	      9.44547382	      0.16485462	     28.80924666	     10.16273414	      0.00000000	      0.01216882	      0.04955919	     -0.08405757	      0.02259871	      0.06591372	     -0.08931117	      0.01999215	      0.12049822	     -0.08931117	      0.01390774	      0.12049822	     -0.07355037	      0.01129996	      0.10106110	     -0.06829677	      0.00695326	      0.07676719	     -0.06304318	      0.08692064	      0.56062348	     -0.46750298	      0.00000000	      0.00000000	     12.86678956	    -14.03331540	     44.32274779	     -3.98850009	    -14.07611725	   -101.28390530	     99.69113654	     86.10911774	     -9.91960167	     28.31119990	     -8.16069940	    -19.48953792	    -77.93195954	    112.87490732	     11.44192331	     -4.10009071	    -18.07628009
      4.51666667	     -4.26395381	     -1.70652680	     90.42317068	      0.16424930	      0.97460199	      0.39968047	     -0.55878056	     -3.13361420	     -5.75446315	     14.04086383	      0.24505930	     32.46265710	      2.34008897	      0.00000000	     -2.29078169	      2.52101832	    -13.26124878	      9.66057402	      0.16860882	     28.90552605	     10.98247250	      0.00000000	      0.03545351	      0.02159063	     -0.00755014	      0.06584071	      0.02871554	     -0.00802202	      0.05824657	      0.05249545	     -0.00802202	      0.04051982	      0.05249545	     -0.00660637	      0.03292213	      0.04402761	     -0.00613449	      0.02025813	      0.03344388	     -0.00566261	      0.25324087	      0.24423751	     -0.04199162	      0.00000000	      0.00000000	     11.68170345	    -13.78379947	     44.42979285	     -4.86560961	    -13.94155976	    -99.91510646	     99.23380597	     72.41718413	    -15.24381226	     29.53495738	     -7.70273394	    -19.52680201	    -77.73654100	    113.36801898	     10.53082642	     -4.82245557	    -17.32930665
      4.53333333	     -4.36870751	     -1.74787762	     90.39682403	      0.16426355	      0.97473846	      0.39951757	     -0.40997406	     -3.21211735	     -5.53722825	     14.18349232	      0.24754864	     32.41308307	      1.98082885	      0.00000000	     -2.17048041	      2.58365545	    -13.69422784	      9.86382246	      0.17215618	     28.94753321	     11.38968254	      0.00000000	      0.04620217	      0.01240520	      0.04049033	      0.08580205	      0.01649891	      0.04302097	      0.07590555	      0.03016200	      0.04302097	      0.05280446	      0.03016200	      0.03542904	      0.04290334	      0.02529668	      0.03289839	      0.02639992	      0.01921565	      0.03036774	      0.33001748	      0.14033009	      0.22519505	      0.00000000	      0.00000000	     11.20786393	    -13.77939218	     44.46711592	     -5.46616137	    -13.68211470	    -99.14865682	     98.99536810	     54.25472983	    -18.45743724	     29.26260499	     -7.52252328	    -19.49477564	    -77.75731672	    113.83877842	     10.84646344	     -5.70892842	    -16.61121575
      4.55000000	     -4.40858340	     -1.81672604	     90.34440727	      0.16442500	      0.97484971	      0.39964805	     -0.23248557	     -3.21738153	     -5.31165000	     14.30691629	      0.24970280	     32.30080476	      1.61083251	      0.00000000	     -2.02175778	      2.58789775	    -14.02261841	     10.03334728	      0.17511495	     28.95305307	     11.62297655	      0.00000000	      0.04954356	      0.01221534	      0.04544251	      0.09200734	      0.01624640	      0.04828267	      0.08139511	      0.02970038	      0.04828267	      0.05662333	      0.02970038	      0.03976220	      0.04600615	      0.02490952	      0.03692204	      0.02830919	      0.01892156	      0.03408189	      0.35388467	      0.13818238	      0.25273763	      0.00000000	      0.00000000	     11.37681841	    -13.98364941	     44.45707440	     -5.59917002	    -13.36951521	    -98.68206410	     99.03784510	     47.99985531	    -19.77314430	     29.59252661	     -7.62632375	    -19.43707987	    -78.10245434	    114.31311471	     12.46456218	     -7.11775122	    -16.02538666
